<svg t="1722331875985" class="icon" viewBox="0 0 1024 1024" version="1.1" xmlns="http://www.w3.org/2000/svg" p-id="8268"
    id="mx_n_1722331875985" data-darkreader-inline-fill="" width="200" height="200">
    <path d="M944.213333 289.792z" fill="#0086FF" p-id="8269" data-darkreader-inline-fill=""
        style="--darkreader-inline-fill:#33a6ff;"></path>
    <path
        d="M1001.856 189.952l-57.642667-99.84-57.642666 99.84-57.621334 99.84-259.712 449.813333-57.642666-99.84-202.069334-349.973333H194.261333l259.690667 449.813333 57.642667 99.84 57.642666 99.818667 57.642667-99.818667L944.213333 289.792z"
        fill="#798ff1" p-id="8270" data-darkreader-inline-fill="" style="--darkreader-inline-fill:#650000;"
        data-spm-anchor-id="a313x.search_index.0.i21.335f3a81vxalr1" class=""></path>
    <path
        d="M713.664 289.792l57.642667-99.84H21.333333l57.642667 99.84 374.976 649.472h115.285333l-57.642666-99.818667-57.642667-99.84L194.261333 289.792h115.264z"
        fill="#2456cb" p-id="8271" data-darkreader-inline-fill="" style="--darkreader-inline-fill:#7a3737;"></path>
    <path
        d="M828.949333 90.112H78.976L21.333333 189.952h749.973334l-57.642667 99.84-202.069333 349.973333 57.642666 99.84 259.712-449.813333 57.621334-99.84 57.642666-99.84z"
        fill="#1e21cf" p-id="8272" data-darkreader-inline-fill="" style="--darkreader-inline-fill:#8d0000;"></path>
</svg>